<?xml version="1.0" standalone="no"?>
<!DOCTYPE svg PUBLIC "-//W3C//DTD SVG 20010904//EN"
 "http://www.w3.org/TR/2001/REC-SVG-20010904/DTD/svg10.dtd">
<svg version="1.0" xmlns="http://www.w3.org/2000/svg"
 width="500.000000pt" height="500.000000pt" viewBox="0 0 500.000000 500.000000"
 preserveAspectRatio="xMidYMid meet">
<metadata>
Created by potrace 1.14, written by Peter Selinger 2001-2017
</metadata>
<g transform="translate(0.000000,500.000000) scale(0.100000,-0.100000)"
fill="#000000" stroke="none">
<path d="M0 2500 l0 -2500 2500 0 2500 0 0 2500 0 2500 -2500 0 -2500 0 0
-2500z m2917 2311 c427 -63 835 -244 1165 -518 483 -400 787 -969 853 -1595
27 -259 17 -456 -35 -718 -147 -737 -655 -1373 -1350 -1690 -530 -242 -1163
-277 -1715 -95 -578 190 -1056 586 -1354 1122 -221 399 -324 899 -281 1368 55
602 372 1206 832 1587 352 293 746 471 1183 538 174 26 523 27 702 1z"/>
<path d="M2375 4724 c-16 -2 -73 -9 -125 -15 -209 -24 -497 -115 -712 -226
-669 -344 -1106 -954 -1224 -1708 -23 -145 -23 -453 0 -620 61 -437 239 -837
526 -1176 670 -792 1811 -1023 2745 -557 771 384 1258 1168 1257 2023 -1 520
-155 982 -463 1391 -345 457 -885 780 -1454 870 -95 15 -482 28 -550 18z m241
-101 c-4 -9 -14 -44 -22 -79 -12 -45 -21 -64 -35 -67 -22 -6 -22 -4 -10 43 6
19 15 54 21 78 8 32 16 42 31 42 16 0 19 -4 15 -17z m46 0 c22 -20 23 -64 3
-103 -9 -17 -17 -30 -19 -30 -3 0 -11 -2 -19 -5 -11 -5 -10 7 6 56 16 49 18
65 9 80 -15 23 -5 25 20 2z m-360 -89 c10 -38 18 -72 18 -76 0 -16 -39 -7 -44
10 -20 69 -26 106 -21 123 12 35 29 15 47 -57z m667 64 c0 -7 -15 -42 -32 -78
-24 -50 -36 -65 -50 -62 -10 2 -17 7 -15 11 51 121 63 141 80 141 10 0 18 -6
17 -12z m61 -14 c0 -14 -3 -14 -15 -4 -8 7 -15 14 -15 16 0 2 7 4 15 4 8 0 15
-7 15 -16z m-47 -54 c-3 -11 -9 -17 -15 -14 -5 3 -4 12 3 20 16 19 18 18 12
-6z m-1013 -10 c0 -18 -3 -19 -20 -8 -18 12 -19 13 -2 20 9 3 18 7 20 7 1 1 2
-8 2 -19z m1328 1 c11 -6 11 -17 1 -57 -11 -44 -46 -100 -57 -90 -6 6 30 156
37 156 3 0 12 -4 19 -9z m-1398 -21 c-12 -23 -3 -118 13 -138 9 -11 6 -13 -13
-10 -52 7 -63 97 -19 144 27 29 33 30 19 4z m1515 -19 c3 -5 -12 -35 -34 -66
-22 -31 -41 -61 -43 -66 -2 -5 -13 -6 -25 -3 -23 6 -23 7 13 55 20 28 32 54
28 60 -4 7 -3 9 3 6 6 -4 13 0 17 8 6 17 32 20 41 6z m-435 -22 c-7 -11 -14
-18 -17 -15 -3 3 0 12 7 21 18 21 23 19 10 -6z m-770 -19 c0 -5 -5 -10 -11
-10 -5 0 -7 5 -4 10 3 6 8 10 11 10 2 0 4 -4 4 -10z m-220 -50 c0 -3 -9 -11
-19 -17 -18 -11 -18 -10 -8 17 8 20 14 25 19 17 4 -7 8 -14 8 -17z m-355 -77
c41 -62 44 -69 28 -80 -9 -7 -17 -12 -18 -10 -63 82 -86 133 -68 150 10 11 10
11 58 -60z m2039 16 c-3 -48 -11 -70 -38 -98 -24 -25 -31 -28 -47 -18 -18 11
-17 13 11 42 16 16 32 44 36 60 9 40 14 47 27 42 7 -2 11 -15 11 -28z m-814
-14 c226 -36 354 -77 555 -176 500 -247 858 -704 979 -1250 181 -822 -205
-1647 -955 -2038 -378 -197 -833 -253 -1274 -155 -340 75 -724 307 -955 577
-267 311 -417 667 -451 1067 -63 736 316 1429 972 1779 178 94 389 164 589
195 130 19 419 20 540 1z m890 -15 c0 -5 -5 -10 -11 -10 -5 0 -7 5 -4 10 3 6
8 10 11 10 2 0 4 -4 4 -10z m-2665 -260 c14 -32 23 -40 44 -40 14 0 36 -3 47
-6 21 -5 20 -7 -12 -37 -34 -31 -34 -33 -26 -79 5 -27 7 -48 5 -48 -3 0 -23
10 -44 22 l-39 22 -42 -24 -41 -23 6 50 c5 46 3 53 -24 79 -33 31 -25 44 27
44 26 0 34 6 49 40 10 22 21 40 25 40 4 0 15 -18 25 -40z m2968 5 c18 -38 21
-40 81 -50 l40 -7 -38 -31 c-37 -32 -37 -33 -27 -77 5 -24 8 -46 7 -48 -2 -1
-20 7 -41 19 l-37 22 -45 -22 -46 -22 7 49 c6 44 4 50 -24 77 -34 32 -27 45
26 45 26 0 34 6 49 40 10 22 21 40 25 40 3 0 14 -16 23 -35z m-2973 -2865 c15
-36 37 -50 79 -50 39 0 39 -9 1 -45 -26 -25 -29 -32 -23 -71 3 -24 3 -44 0
-44 -4 0 -22 8 -42 17 -33 16 -37 16 -70 0 -20 -9 -38 -17 -42 -17 -3 0 -3 20
0 44 6 39 3 46 -23 71 -38 36 -38 45 1 45 42 0 64 14 79 50 7 16 16 30 20 30
4 0 13 -14 20 -30z m2920 -110 c15 -28 27 -40 43 -40 12 0 32 -3 45 -6 l23 -7
-32 -33 c-29 -30 -31 -36 -25 -79 l7 -46 -42 22 -43 21 -43 -21 -44 -21 7 46
c6 42 4 48 -25 78 l-32 33 23 7 c13 3 33 6 45 6 16 0 28 12 43 40 11 22 22 40
25 40 3 0 14 -18 25 -40z m-443 -342 c-3 -7 -5 -2 -5 12 0 14 2 19 5 13 2 -7
2 -19 0 -25z m-29 -12 c35 -40 51 -94 31 -107 -17 -10 -29 -2 -29 22 0 10 -16
37 -36 59 -34 38 -38 60 -9 60 7 0 26 -15 43 -34z m-1968 9 c0 -3 -16 -37 -35
-75 -25 -50 -39 -68 -50 -64 -8 4 -15 10 -15 15 0 15 52 113 64 121 13 9 36
10 36 3z m1700 -127 c0 -18 3 -57 6 -85 6 -48 5 -53 -13 -53 -18 0 -21 9 -27
75 -7 79 -4 95 20 95 9 0 14 -11 14 -32z m-1419 -11 c-13 -6 -39 -34 -58 -61
-26 -38 -31 -52 -22 -62 16 -19 4 -18 -15 2 -46 45 16 132 94 133 l25 1 -24
-13z m1327 -42 c23 -47 28 -90 13 -99 -4 -3 -24 26 -43 64 -32 65 -32 77 -2
79 5 1 20 -19 32 -44z m-1265 9 c-7 -19 -10 -18 -16 5 -3 13 -1 18 9 14 7 -2
10 -11 7 -19z m997 -43 c0 -17 -15 -19 -28 -5 -11 12 -9 14 8 14 11 0 20 -4
20 -9z m-704 -41 c-3 -22 -9 -58 -12 -80 -4 -31 -10 -40 -25 -40 -18 0 -19 5
-13 63 6 58 25 97 46 97 6 0 7 -18 4 -40z m632 -32 c-10 -90 -13 -98 -34 -98
-13 0 -15 8 -10 48 3 26 7 64 8 85 2 30 6 37 23 37 21 0 21 -3 13 -72z m-988
22 c-6 -12 -16 -17 -26 -13 -12 4 -11 8 8 18 13 7 24 13 26 14 1 1 -2 -8 -8
-19z m646 -60 c-18 -69 -24 -80 -42 -80 l-22 0 20 68 c10 37 21 73 23 80 3 6
13 12 23 12 18 0 18 -3 -2 -80z m78 48 c17 -48 -15 -110 -64 -123 -21 -5 -22
-4 -8 5 20 12 53 114 44 136 -4 10 -1 14 6 12 7 -3 17 -16 22 -30z m306 -10
c0 -16 -3 -19 -11 -11 -6 6 -8 16 -5 22 11 17 16 13 16 -11z m8 -79 c-7 -5
-17 -9 -23 -9 -5 1 -2 5 8 11 9 5 18 18 18 27 1 14 2 14 6 -2 3 -10 -1 -22 -9
-27z m-801 16 c0 -8 -4 -12 -9 -9 -5 3 -6 10 -3 15 9 13 12 11 12 -6z"/>
<path d="M1097 3423 c-4 -3 -7 -199 -7 -434 l0 -428 98 -4 c56 -2 129 -13 172
-26 107 -30 314 -59 551 -76 290 -21 259 -27 259 50 l0 65 940 -2 940 -3 0
433 0 432 -1473 0 c-811 0 -1477 -3 -1480 -7z m472 -285 c1 -5 -3 -8 -9 -8 -5
0 -10 12 -9 28 0 24 1 25 9 7 5 -11 9 -23 9 -27z m-172 -10 c20 -19 23 -31 23
-93 0 -109 -33 -132 -177 -123 -57 4 -69 8 -89 32 -33 37 -34 140 -3 180 20
25 24 26 122 26 90 0 103 -2 124 -22z m543 12 c0 -6 -27 -10 -60 -10 l-60 0 0
-110 c0 -67 -4 -110 -10 -110 -6 0 -10 43 -10 110 l0 110 -60 0 c-33 0 -60 4
-60 10 0 6 50 10 130 10 80 0 130 -4 130 -10z m420 0 c0 -6 -50 -10 -130 -10
l-130 0 0 -40 0 -40 115 0 c96 0 115 -3 115 -15 0 -12 -19 -15 -115 -15 l-115
0 0 -40 0 -40 130 0 c109 0 130 -2 130 -15 0 -13 -22 -15 -140 -15 l-140 0 0
120 0 120 140 0 c87 0 140 -4 140 -10z m295 -90 l120 -99 3 100 c4 143 22 125
22 -23 0 -114 -1 -120 -17 -106 -56 48 -232 188 -237 188 -3 0 -6 -45 -6 -100
0 -82 -3 -100 -15 -100 -12 0 -15 20 -15 120 0 89 3 120 13 120 6 0 66 -45
132 -100z m458 0 l122 -100 3 100 c4 144 22 126 22 -21 0 -96 -3 -119 -12
-112 -7 5 -63 51 -125 101 -62 51 -117 92 -123 92 -6 0 -10 -38 -10 -100 0
-60 -4 -100 -10 -100 -6 0 -10 47 -10 120 0 73 4 120 10 120 6 0 65 -45 133
-100z m337 -20 c0 -73 -4 -120 -10 -120 -6 0 -10 47 -10 120 0 73 4 120 10
120 6 0 10 -47 10 -120z m430 105 c7 -9 10 -19 6 -22 -4 -4 -11 -2 -15 5 -6 9
-38 12 -122 10 l-114 -3 0 -35 0 -35 111 -5 c124 -6 154 -19 154 -70 0 -52
-30 -65 -151 -65 -89 0 -111 3 -126 17 -9 10 -14 21 -10 25 4 3 13 1 19 -5 8
-8 51 -12 124 -12 104 0 113 2 119 20 3 11 3 29 0 40 -6 18 -15 20 -113 20
-124 0 -152 11 -152 61 0 65 8 69 139 69 94 0 121 -3 131 -15z"/>
<path d="M1160 3111 c-5 -11 -10 -45 -10 -76 0 -92 4 -95 125 -95 121 0 125 3
125 95 0 92 -4 95 -125 95 -93 0 -105 -2 -115 -19z"/>
<path d="M2270 2365 c0 -12 13 -15 60 -15 l59 0 3 -107 c3 -93 5 -108 21 -111
15 -3 17 7 17 107 l0 111 60 0 c47 0 60 3 60 15 0 13 -22 15 -140 15 -118 0
-140 -2 -140 -15z"/>
<path d="M2695 2355 c-22 -21 -25 -33 -25 -100 0 -67 3 -79 25 -100 22 -23 31
-25 123 -25 128 0 144 10 150 98 5 73 -2 106 -28 132 -17 17 -34 20 -120 20
-94 0 -103 -2 -125 -25z m229 -27 c10 -13 16 -43 16 -73 0 -30 -6 -60 -16 -73
-14 -20 -24 -22 -104 -22 -111 0 -120 7 -120 95 0 88 9 95 120 95 80 0 90 -2
104 -22z"/>
<path d="M3110 2280 c0 -94 2 -103 25 -125 22 -23 31 -25 123 -25 141 0 146 5
150 144 3 92 2 106 -12 106 -13 0 -16 -14 -16 -88 0 -125 -6 -132 -120 -132
-117 0 -120 3 -120 126 0 77 -3 94 -15 94 -12 0 -15 -18 -15 -100z"/>
<path d="M3560 2255 c0 -104 2 -125 15 -125 11 0 15 12 15 45 l0 45 115 0 115
0 0 -45 c0 -39 3 -45 21 -45 19 0 21 4 15 48 -7 59 -7 68 0 119 5 33 2 45 -15
62 -19 19 -32 21 -151 21 l-130 0 0 -125z m258 48 l3 -43 -115 0 -116 0 0 45
0 46 113 -3 112 -3 3 -42z"/>
<path d="M2328 1875 c111 -34 456 -65 737 -65 l151 0 39 40 39 40 -504 -1
c-440 0 -499 -2 -462 -14z"/>
<path d="M3614 1859 l-29 -31 55 7 c98 11 226 34 251 44 17 7 -14 10 -112 10
l-135 1 -30 -31z"/>
</g>
</svg>
